<svg width="228" height="48" viewBox="0 0 228 48" fill="none" xmlns="http://www.w3.org/2000/svg">
<path d="M28.0625 29.1875C28.2292 28.9375 28.4375 28.7917 28.6875 28.75C28.9792 28.6667 29.2083 28.6875 29.375 28.8125C29.5417 28.9375 29.625 29.1458 29.625 29.4375C29.6667 29.7292 29.5625 30.125 29.3125 30.625C28.4792 32.2083 27.375 33.9167 26 35.75C24.6667 37.5833 23.25 39.3125 21.75 40.9375C20.25 42.5208 18.7917 43.8333 17.375 44.875C15.9583 45.9167 14.7708 46.4375 13.8125 46.4375C12.4375 46.4375 11.2917 46.1667 10.375 45.625C9.45833 45.0833 8.72917 44.4167 8.1875 43.625C7.6875 42.8333 7.33333 41.9792 7.125 41.0625C6.91667 40.1042 6.85417 39.2292 6.9375 38.4375C6.97917 37.7708 7.125 36.5833 7.375 34.875C7.625 33.125 7.95833 31.125 8.375 28.875C8.79167 26.5833 9.25 24.1458 9.75 21.5625C10.2917 18.9375 10.8542 16.4167 11.4375 14C10.7292 14.0833 10.0208 14.1667 9.3125 14.25C8.60417 14.3333 7.95833 14.375 7.375 14.375C6.04167 14.375 4.79167 14.2292 3.625 13.9375C2.41667 13.6042 1.52083 13.2917 0.9375 13C0.604167 12.8333 0.458333 12.6042 0.5 12.3125C0.541667 11.9792 0.666667 11.6667 0.875 11.375C1.08333 11.0417 1.35417 10.7708 1.6875 10.5625C1.97917 10.3125 2.25 10.1875 2.5 10.1875C3.29167 10.2708 4.14583 10.3542 5.0625 10.4375C5.97917 10.4792 6.97917 10.4792 8.0625 10.4375C8.85417 10.3958 9.60417 10.3333 10.3125 10.25C11.0625 10.1667 11.7917 10.0625 12.5 9.9375C13.0417 7.9375 13.5625 6.20833 14.0625 4.75C14.6042 3.25 15.0833 2.20833 15.5 1.625C15.625 1.41667 15.8958 1.25 16.3125 1.125C16.7708 0.958333 17.25 0.854167 17.75 0.8125C18.25 0.729167 18.7292 0.729167 19.1875 0.8125C19.6458 0.854167 19.9792 1 20.1875 1.25C20.3958 1.58333 20.4792 2.4375 20.4375 3.8125C20.3958 5.1875 20.1667 6.9375 19.75 9.0625C21.5 9.0625 23.0417 9.16667 24.375 9.375C25.75 9.54167 26.9167 9.75 27.875 10C28.8333 10.2083 29.6042 10.4375 30.1875 10.6875C30.7708 10.8958 31.2083 11.0417 31.5 11.125C31.7917 11.2083 31.9375 11.4167 31.9375 11.75C31.9792 12.0833 31.9167 12.4375 31.75 12.8125C31.625 13.1458 31.3958 13.4375 31.0625 13.6875C30.7292 13.9375 30.3542 14.0208 29.9375 13.9375C29.5208 13.8958 29.0417 13.8125 28.5 13.6875C28 13.5625 27.375 13.4583 26.625 13.375C25.9167 13.2917 25.0625 13.2083 24.0625 13.125C23.0625 13.0417 21.8958 13 20.5625 13C20.3125 13 20.0208 13.0208 19.6875 13.0625C19.3958 13.0625 19.0833 13.0625 18.75 13.0625C18.5833 13.7292 18.4167 14.3958 18.25 15.0625C18.125 15.6875 17.9375 16.3542 17.6875 17.0625C17.1458 18.7292 16.5208 20.5417 15.8125 22.5C15.1875 24.2083 14.4375 26.1667 13.5625 28.375C12.6875 30.5833 11.7083 32.9375 10.625 35.4375C10.375 37.2292 10.3958 38.6042 10.6875 39.5625C11.0208 40.4792 11.4167 41.1458 11.875 41.5625C12.4167 42.0208 13.0833 42.2708 13.875 42.3125C14.5 42.3958 15.25 42.1875 16.125 41.6875C17.0417 41.1458 17.9792 40.4375 18.9375 39.5625C19.8958 38.6875 20.8542 37.7292 21.8125 36.6875C22.8125 35.6458 23.7292 34.625 24.5625 33.625C25.3958 32.625 26.125 31.7292 26.75 30.9375C27.375 30.1042 27.8125 29.5208 28.0625 29.1875ZM42.8125 35.0625C42.3958 36.6458 41.8333 38.125 41.125 39.5C40.4167 40.875 39.5625 42.0625 38.5625 43.0625C37.6042 44.0625 36.5 44.8333 35.25 45.375C34.0417 45.9583 32.7083 46.25 31.25 46.25C29.5417 46.25 28.1875 45.875 27.1875 45.125C26.2292 44.4167 25.5 43.5208 25 42.4375C24.5417 41.3542 24.2708 40.1667 24.1875 38.875C24.0625 37.5833 24 36.375 24 35.25C24 34.4583 24.1042 33.5833 24.3125 32.625C24.4792 31.6667 24.7292 30.6875 25.0625 29.6875C25.3958 28.6875 25.8125 27.6875 26.3125 26.6875C26.8542 25.6875 27.4792 24.7708 28.1875 23.9375C28.4375 23.2292 28.8125 22.6042 29.3125 22.0625C29.8542 21.5208 30.4583 21.0833 31.125 20.75C31.8333 20.375 32.5833 20.1042 33.375 19.9375C34.1667 19.7292 34.9375 19.625 35.6875 19.625C35.8125 19.625 35.9167 19.6458 36 19.6875C36.125 19.7292 36.25 19.7708 36.375 19.8125C36.9167 19.8542 37.5833 20.0625 38.375 20.4375C39.2083 20.8125 40 21.375 40.75 22.125C41.5417 22.875 42.2083 23.8333 42.75 25C43.2917 26.125 43.5625 27.5 43.5625 29.125C43.5625 29.4583 43.5417 29.875 43.5 30.375C43.4583 30.8333 43.4167 31.2292 43.375 31.5625C44.3333 31.1875 45.3333 30.7292 46.375 30.1875C47.4167 29.6458 48.4167 29.0833 49.375 28.5C50.375 27.875 51.2917 27.25 52.125 26.625C52.9583 26 53.625 25.4375 54.125 24.9375C54.5417 24.5625 54.8958 24.3542 55.1875 24.3125C55.4792 24.2708 55.6875 24.3542 55.8125 24.5625C55.9375 24.7708 55.9583 25.0625 55.875 25.4375C55.7917 25.8125 55.5625 26.2292 55.1875 26.6875C54.9792 26.9375 54.4375 27.4375 53.5625 28.1875C52.7292 28.9375 51.7292 29.75 50.5625 30.625C49.3958 31.5 48.125 32.3542 46.75 33.1875C45.375 34.0208 44.0625 34.6458 42.8125 35.0625ZM32.25 25.5625C32.125 25.9375 32.0625 26.3333 32.0625 26.75C32.0625 27.4167 32.1042 28.125 32.1875 28.875C32.2708 29.5833 32.4792 30.2292 32.8125 30.8125C33.1458 31.3958 33.6667 31.8958 34.375 32.3125C35.125 32.6875 36.1458 32.875 37.4375 32.875C37.6458 32.875 37.8542 32.875 38.0625 32.875C38.2708 32.8333 38.4792 32.7917 38.6875 32.75C38.8125 32.2083 38.9167 31.7292 39 31.3125C39.125 30.8542 39.1875 30.4583 39.1875 30.125C39.2708 29.3333 39.2708 28.5208 39.1875 27.6875C39.1042 26.8542 38.9375 26.1042 38.6875 25.4375C38.4792 24.7292 38.1875 24.1667 37.8125 23.75C37.4792 23.2917 37.0625 23.0625 36.5625 23.0625C35.7708 23.0625 35 23.2917 34.25 23.75C33.5417 24.1667 32.875 24.7708 32.25 25.5625ZM28.25 36.5625C28.25 37.3125 28.2917 38.0625 28.375 38.8125C28.4583 39.5208 28.625 40.1667 28.875 40.75C29.125 41.2917 29.4583 41.75 29.875 42.125C30.2917 42.4583 30.8333 42.625 31.5 42.625C32.25 42.625 32.9375 42.4583 33.5625 42.125C34.1875 41.75 34.75 41.2917 35.25 40.75C35.75 40.1667 36.1875 39.5208 36.5625 38.8125C36.9792 38.0625 37.3333 37.2917 37.625 36.5C37.3333 36.5417 37.0417 36.5833 36.75 36.625C36.5 36.625 36.2083 36.625 35.875 36.625C34.2917 36.625 32.9167 36.1667 31.75 35.25C30.625 34.2917 29.75 33.0833 29.125 31.625C28.875 32.5 28.6667 33.3542 28.5 34.1875C28.3333 35.0208 28.25 35.8125 28.25 36.5625ZM68.875 26.9375C67.7083 26.8958 66.2292 26.8958 64.4375 26.9375C62.6458 26.9375 60.875 26.9583 59.125 27C57.9583 27.0417 56.7708 27.125 55.5625 27.25C54.5208 27.3333 53.375 27.4583 52.125 27.625C50.875 27.7917 49.6875 28.0417 48.5625 28.375C48.5208 28.0417 48.5208 27.7292 48.5625 27.4375C48.6042 27.1042 48.6667 26.7917 48.75 26.5C48.8333 26.1667 48.9167 25.8542 49 25.5625C49.1667 25.1458 49.3958 24.7083 49.6875 24.25C50.0208 23.7917 50.3125 23.5 50.5625 23.375C50.7708 23.2917 51.1875 23.2083 51.8125 23.125C52.4792 23.0417 53.25 22.9792 54.125 22.9375C55.0417 22.8542 56.0417 22.7917 57.125 22.75C58.25 22.7083 59.3542 22.6875 60.4375 22.6875C62.6458 22.6458 64.4792 22.6667 65.9375 22.75C67.3958 22.7917 68.7917 22.875 70.125 23C70.7083 23.0833 71.0417 23.2708 71.125 23.5625C71.25 23.8542 71.1875 24.375 70.9375 25.125C70.6875 25.8333 70.4167 26.3333 70.125 26.625C69.8333 26.875 69.4167 26.9792 68.875 26.9375ZM92 33.0625C91.7917 34.3542 91.5833 35.5833 91.375 36.75C91.2083 37.9167 91.1042 38.8542 91.0625 39.5625C91.0208 40.6042 91.2083 41.3542 91.625 41.8125C92.0417 42.2708 92.5 42.5 93 42.5C93.5833 42.5 94.2917 42.2083 95.125 41.625C96 41.0417 96.9167 40.3125 97.875 39.4375C98.8333 38.5625 99.7917 37.6042 100.75 36.5625C101.708 35.5208 102.583 34.5417 103.375 33.625C104.208 32.6667 104.896 31.8333 105.438 31.125C106.021 30.4167 106.417 29.9583 106.625 29.75C106.875 29.5 107.125 29.3542 107.375 29.3125C107.667 29.2708 107.896 29.3125 108.062 29.4375C108.229 29.5625 108.312 29.7917 108.312 30.125C108.312 30.4583 108.146 30.875 107.812 31.375C107.312 32.1667 106.667 33.1042 105.875 34.1875C105.083 35.2292 104.208 36.3125 103.25 37.4375C102.292 38.5625 101.271 39.6667 100.188 40.75C99.1458 41.8333 98.0833 42.7917 97 43.625C95.9583 44.4583 94.9375 45.125 93.9375 45.625C92.9792 46.1667 92.1042 46.4375 91.3125 46.4375C90.7292 46.4375 90.1667 46.2708 89.625 45.9375C89.125 45.6042 88.6667 45.1667 88.25 44.625C87.8333 44.0833 87.5 43.4792 87.25 42.8125C87.0417 42.1458 86.9583 41.4792 87 40.8125C87.0417 40.5208 87.1042 40.0208 87.1875 39.3125C85.4375 41.2708 83.6667 42.8333 81.875 44C80.125 45.125 78.4375 45.6875 76.8125 45.6875C76.2292 45.6875 75.6042 45.5417 74.9375 45.25C74.2708 44.9583 73.6667 44.4792 73.125 43.8125C72.625 43.1458 72.2083 42.2708 71.875 41.1875C71.5417 40.1042 71.4167 38.7917 71.5 37.25C71.625 34.8333 72.1042 32.5417 72.9375 30.375C73.7708 28.2083 74.8125 26.3333 76.0625 24.75C77.3542 23.125 78.7917 21.8542 80.375 20.9375C82 19.9792 83.625 19.5 85.25 19.5C85.9583 19.5 86.6042 19.6875 87.1875 20.0625C87.7708 20.3958 88.2708 20.8542 88.6875 21.4375C89.1042 21.9792 89.4375 22.5833 89.6875 23.25C89.9792 23.9167 90.1875 24.5417 90.3125 25.125C90.6042 23.9167 90.875 22.7292 91.125 21.5625C91.375 20.3958 91.625 19.2917 91.875 18.25C92.2917 16.7083 92.7292 15.0417 93.1875 13.25C93.6042 11.7083 94.0833 9.9375 94.625 7.9375C95.1667 5.9375 95.7708 3.83333 96.4375 1.625C96.8542 1.29167 97.25 1.04167 97.625 0.875C98 0.708333 98.3542 0.583333 98.6875 0.5C99.0625 0.375 99.4167 0.3125 99.75 0.3125C100.167 0.3125 100.542 0.375 100.875 0.5C101.208 0.583333 101.479 0.854167 101.688 1.3125C101.938 1.72917 102.104 2.375 102.188 3.25C102.271 4.125 102.271 5.3125 102.188 6.8125C102.104 8.64583 101.771 10.6458 101.188 12.8125C100.646 14.9792 99.9167 17.2292 99 19.5625C98.0833 21.8542 97.0208 24.1667 95.8125 26.5C94.6458 28.7917 93.375 30.9792 92 33.0625ZM88.3125 33.875C88.4792 33.0833 88.625 32.2917 88.75 31.5C88.9167 30.7083 89.1042 29.8958 89.3125 29.0625C89.2292 29.1042 89.1458 29.1458 89.0625 29.1875C89.0208 29.2292 88.9583 29.2708 88.875 29.3125C88.4167 29.5208 88.1042 29.5208 87.9375 29.3125C87.7708 29.0625 87.6875 28.6875 87.6875 28.1875C87.6875 27.9375 87.6667 27.5 87.625 26.875C87.5833 26.2083 87.4583 25.5417 87.25 24.875C87.0833 24.1667 86.8125 23.5625 86.4375 23.0625C86.0625 22.5208 85.5417 22.25 84.875 22.25C83.9167 22.25 82.9375 22.75 81.9375 23.75C80.9375 24.7083 80 25.8958 79.125 27.3125C78.25 28.6875 77.5208 30.1667 76.9375 31.75C76.3542 33.3333 76.0208 34.75 75.9375 36C75.8542 38 76.1042 39.4375 76.6875 40.3125C77.2708 41.1875 78.0625 41.625 79.0625 41.625C79.8125 41.625 80.625 41.3333 81.5 40.75C82.4167 40.1667 83.2917 39.4583 84.125 38.625C85 37.7917 85.7917 36.9375 86.5 36.0625C87.25 35.1875 87.8542 34.4583 88.3125 33.875ZM121.562 35.0625C121.146 36.6458 120.583 38.125 119.875 39.5C119.167 40.875 118.312 42.0625 117.312 43.0625C116.354 44.0625 115.25 44.8333 114 45.375C112.792 45.9583 111.458 46.25 110 46.25C108.292 46.25 106.938 45.875 105.938 45.125C104.979 44.4167 104.25 43.5208 103.75 42.4375C103.292 41.3542 103.021 40.1667 102.938 38.875C102.812 37.5833 102.75 36.375 102.75 35.25C102.75 34.4583 102.854 33.5833 103.062 32.625C103.229 31.6667 103.479 30.6875 103.812 29.6875C104.146 28.6875 104.562 27.6875 105.062 26.6875C105.604 25.6875 106.229 24.7708 106.938 23.9375C107.188 23.2292 107.562 22.6042 108.062 22.0625C108.604 21.5208 109.208 21.0833 109.875 20.75C110.583 20.375 111.333 20.1042 112.125 19.9375C112.917 19.7292 113.688 19.625 114.438 19.625C114.562 19.625 114.667 19.6458 114.75 19.6875C114.875 19.7292 115 19.7708 115.125 19.8125C115.667 19.8542 116.333 20.0625 117.125 20.4375C117.958 20.8125 118.75 21.375 119.5 22.125C120.292 22.875 120.958 23.8333 121.5 25C122.042 26.125 122.312 27.5 122.312 29.125C122.312 29.4583 122.292 29.875 122.25 30.375C122.208 30.8333 122.167 31.2292 122.125 31.5625C123.083 31.1875 124.083 30.7292 125.125 30.1875C126.167 29.6458 127.167 29.0833 128.125 28.5C129.125 27.875 130.042 27.25 130.875 26.625C131.708 26 132.375 25.4375 132.875 24.9375C133.292 24.5625 133.646 24.3542 133.938 24.3125C134.229 24.2708 134.438 24.3542 134.562 24.5625C134.688 24.7708 134.708 25.0625 134.625 25.4375C134.542 25.8125 134.312 26.2292 133.938 26.6875C133.729 26.9375 133.188 27.4375 132.312 28.1875C131.479 28.9375 130.479 29.75 129.312 30.625C128.146 31.5 126.875 32.3542 125.5 33.1875C124.125 34.0208 122.812 34.6458 121.562 35.0625ZM111 25.5625C110.875 25.9375 110.812 26.3333 110.812 26.75C110.812 27.4167 110.854 28.125 110.938 28.875C111.021 29.5833 111.229 30.2292 111.562 30.8125C111.896 31.3958 112.417 31.8958 113.125 32.3125C113.875 32.6875 114.896 32.875 116.188 32.875C116.396 32.875 116.604 32.875 116.812 32.875C117.021 32.8333 117.229 32.7917 117.438 32.75C117.562 32.2083 117.667 31.7292 117.75 31.3125C117.875 30.8542 117.938 30.4583 117.938 30.125C118.021 29.3333 118.021 28.5208 117.938 27.6875C117.854 26.8542 117.688 26.1042 117.438 25.4375C117.229 24.7292 116.938 24.1667 116.562 23.75C116.229 23.2917 115.812 23.0625 115.312 23.0625C114.521 23.0625 113.75 23.2917 113 23.75C112.292 24.1667 111.625 24.7708 111 25.5625ZM107 36.5625C107 37.3125 107.042 38.0625 107.125 38.8125C107.208 39.5208 107.375 40.1667 107.625 40.75C107.875 41.2917 108.208 41.75 108.625 42.125C109.042 42.4583 109.583 42.625 110.25 42.625C111 42.625 111.688 42.4583 112.312 42.125C112.938 41.75 113.5 41.2917 114 40.75C114.5 40.1667 114.938 39.5208 115.312 38.8125C115.729 38.0625 116.083 37.2917 116.375 36.5C116.083 36.5417 115.792 36.5833 115.5 36.625C115.25 36.625 114.958 36.625 114.625 36.625C113.042 36.625 111.667 36.1667 110.5 35.25C109.375 34.2917 108.5 33.0833 107.875 31.625C107.625 32.5 107.417 33.3542 107.25 34.1875C107.083 35.0208 107 35.8125 107 36.5625ZM145.25 44C147.083 36.2917 148.542 30.1042 149.625 25.4375C150.75 20.7708 151.604 17.2083 152.188 14.75C152.854 11.8333 153.312 9.8125 153.562 8.6875C153.688 7.89583 153.792 7.125 153.875 6.375C153.958 5.70833 154 5.02083 154 4.3125C154 3.60417 153.938 2.95833 153.812 2.375C154.146 2.16667 154.5 2 154.875 1.875C155.292 1.75 155.688 1.64583 156.062 1.5625C156.521 1.4375 156.979 1.33333 157.438 1.25C157.896 1.16667 158.312 1.125 158.688 1.125C159.021 1.125 159.333 1.16667 159.625 1.25C159.917 1.29167 160.104 1.41667 160.188 1.625C160.438 1.83333 160.542 2.25 160.5 2.875C160.5 3.5 160.458 4.14583 160.375 4.8125C160.208 5.60417 160.021 6.45833 159.812 7.375C159.312 9.16667 158.625 11.75 157.75 15.125C157 18 155.979 21.9167 154.688 26.875C153.438 31.8333 151.854 38.0833 149.938 45.625C149.729 45.8333 149.479 45.9792 149.188 46.0625C148.896 46.1458 148.625 46.1875 148.375 46.1875C148.083 46.1875 147.771 46.1667 147.438 46.125C147.146 46.0417 146.854 45.9167 146.562 45.75C146.312 45.5833 146.062 45.3542 145.812 45.0625C145.562 44.8125 145.375 44.4583 145.25 44ZM173.938 8.1875C173.812 8.64583 173.562 9.10417 173.188 9.5625C172.854 9.97917 172.458 10.3333 172 10.625C171.583 10.875 171.146 11.0417 170.688 11.125C170.229 11.2083 169.854 11.125 169.562 10.875C168.688 10.2083 168.229 9.5 168.188 8.75C168.146 7.95833 168.333 7.22917 168.75 6.5625C169.167 5.85417 169.688 5.27083 170.312 4.8125C170.938 4.3125 171.479 4.02083 171.938 3.9375C172.396 3.85417 172.771 3.95833 173.062 4.25C173.396 4.5 173.646 4.85417 173.812 5.3125C173.979 5.72917 174.062 6.20833 174.062 6.75C174.104 7.29167 174.062 7.77083 173.938 8.1875ZM165.312 21.5C165.521 21.25 165.917 21.0417 166.5 20.875C167.083 20.7083 167.688 20.5833 168.312 20.5C168.938 20.375 169.5 20.3125 170 20.3125C170.542 20.2708 170.854 20.2708 170.938 20.3125C170.979 20.3542 170.875 20.7917 170.625 21.625C170.375 22.4583 170.062 23.4375 169.688 24.5625C169.312 25.6875 168.917 26.8542 168.5 28.0625C168.083 29.2292 167.771 30.1875 167.562 30.9375C167.354 31.6875 167.104 32.5417 166.812 33.5C166.521 34.4167 166.25 35.3333 166 36.25C165.792 37.125 165.646 37.9583 165.562 38.75C165.479 39.5417 165.542 40.1458 165.75 40.5625C165.958 41.0625 166.188 41.4167 166.438 41.625C166.688 41.7917 166.958 41.875 167.25 41.875C168.083 41.875 169.125 41.4167 170.375 40.5C171.667 39.5833 172.958 38.5 174.25 37.25C175.583 35.9583 176.812 34.6667 177.938 33.375C179.062 32.0417 179.896 30.9792 180.438 30.1875C180.771 29.7708 181.104 29.5 181.438 29.375C181.812 29.25 182.104 29.2708 182.312 29.4375C182.562 29.6042 182.688 29.875 182.688 30.25C182.729 30.625 182.604 31.0625 182.312 31.5625C181.646 32.7292 180.667 34.125 179.375 35.75C178.083 37.3333 176.708 38.875 175.25 40.375C173.792 41.8333 172.354 43.0833 170.938 44.125C169.562 45.1667 168.438 45.7083 167.562 45.75C166.854 45.7917 166.146 45.6667 165.438 45.375C164.771 45.125 164.146 44.7708 163.562 44.3125C163.021 43.8125 162.562 43.25 162.188 42.625C161.812 41.9583 161.604 41.2708 161.562 40.5625C161.438 39.5208 161.438 38.1042 161.562 36.3125C161.688 34.4792 161.917 32.625 162.25 30.75C162.583 28.8333 163 27.0208 163.5 25.3125C164.042 23.6042 164.646 22.3333 165.312 21.5ZM186.562 42.875C186.812 43.0417 187.125 43.125 187.5 43.125C187.917 43.125 188.312 43.0417 188.688 42.875C189.104 42.7083 189.479 42.4792 189.812 42.1875C190.188 41.8958 190.458 41.5208 190.625 41.0625C190.792 40.6042 190.792 39.9583 190.625 39.125C190.458 38.25 190.188 37.3333 189.812 36.375C189.479 35.375 189.104 34.375 188.688 33.375C188.271 32.375 187.917 31.4583 187.625 30.625C187.375 30 187.167 29.4167 187 28.875C186.833 28.4167 186.667 27.9792 186.5 27.5625C186.375 27.1042 186.271 26.7917 186.188 26.625C185.979 26.9583 185.604 27.5 185.062 28.25C184.562 29 184 29.7917 183.375 30.625C182.792 31.4167 182.229 32.1667 181.688 32.875C181.146 33.5417 180.771 34 180.562 34.25C180.229 34.625 179.896 34.8542 179.562 34.9375C179.271 34.9792 179.021 34.9167 178.812 34.75C178.604 34.5417 178.479 34.2708 178.438 33.9375C178.438 33.5625 178.604 33.125 178.938 32.625C179.188 32.2917 179.562 31.7708 180.062 31.0625C180.562 30.3125 181.062 29.5625 181.562 28.8125C182.062 28.0208 182.521 27.3333 182.938 26.75C183.354 26.125 183.583 25.75 183.625 25.625C183.708 25.2917 183.583 24.8542 183.25 24.3125C182.958 23.7708 182.917 23.1458 183.125 22.4375C183.292 21.8542 183.667 21.1875 184.25 20.4375C184.833 19.6458 185.521 18.9375 186.312 18.3125C187.104 17.6875 187.917 17.2292 188.75 16.9375C189.583 16.6042 190.333 16.6042 191 16.9375C191.542 17.2708 191.979 17.6458 192.312 18.0625C192.646 18.4375 192.771 18.8333 192.688 19.25C192.604 19.4583 192.479 19.7292 192.312 20.0625C192.146 20.3958 191.896 20.8125 191.562 21.3125C191.229 21.7708 190.75 22.375 190.125 23.125C190.25 24.0833 190.417 24.9583 190.625 25.75C190.875 26.5417 191.104 27.2292 191.312 27.8125C191.562 28.5208 191.833 29.1667 192.125 29.75C192.5 30.5 192.896 31.2708 193.312 32.0625C193.729 32.8542 194.104 33.6458 194.438 34.4375C194.771 35.1875 195.042 35.8958 195.25 36.5625C195.458 37.2292 195.521 37.7917 195.438 38.25C195.312 38.9583 194.938 39.8125 194.312 40.8125C193.729 41.8125 192.979 42.7917 192.062 43.75C191.188 44.6667 190.167 45.4583 189 46.125C187.875 46.7917 186.688 47.125 185.438 47.125C184.562 47.125 183.708 46.8542 182.875 46.3125C182.083 45.7708 181.396 45.1458 180.812 44.4375C180.271 43.6875 179.854 42.9583 179.562 42.25C179.312 41.5417 179.292 41 179.5 40.625C179.75 40.125 179.979 39.7292 180.188 39.4375C180.396 39.1458 180.708 38.8125 181.125 38.4375C181.292 38.3125 181.5 38.1667 181.75 38C181.958 37.875 182.25 37.75 182.625 37.625C183 37.5 183.438 37.3542 183.938 37.1875C184.354 38.4792 184.729 39.5 185.062 40.25C185.396 40.9583 185.667 41.5208 185.875 41.9375C186.125 42.3958 186.354 42.7083 186.562 42.875ZM223.312 29.1875C223.479 28.9375 223.688 28.7917 223.938 28.75C224.229 28.6667 224.458 28.6875 224.625 28.8125C224.792 28.9375 224.875 29.1458 224.875 29.4375C224.917 29.7292 224.812 30.125 224.562 30.625C223.729 32.2083 222.625 33.9167 221.25 35.75C219.917 37.5833 218.5 39.3125 217 40.9375C215.5 42.5208 214.042 43.8333 212.625 44.875C211.208 45.9167 210.021 46.4375 209.062 46.4375C207.688 46.4375 206.542 46.1667 205.625 45.625C204.708 45.0833 203.979 44.4167 203.438 43.625C202.938 42.8333 202.583 41.9792 202.375 41.0625C202.167 40.1042 202.104 39.2292 202.188 38.4375C202.229 37.7708 202.375 36.5833 202.625 34.875C202.875 33.125 203.208 31.125 203.625 28.875C204.042 26.5833 204.5 24.1458 205 21.5625C205.542 18.9375 206.104 16.4167 206.688 14C205.979 14.0833 205.271 14.1667 204.562 14.25C203.854 14.3333 203.208 14.375 202.625 14.375C201.292 14.375 200.042 14.2292 198.875 13.9375C197.667 13.6042 196.771 13.2917 196.188 13C195.854 12.8333 195.708 12.6042 195.75 12.3125C195.792 11.9792 195.917 11.6667 196.125 11.375C196.333 11.0417 196.604 10.7708 196.938 10.5625C197.229 10.3125 197.5 10.1875 197.75 10.1875C198.542 10.2708 199.396 10.3542 200.312 10.4375C201.229 10.4792 202.229 10.4792 203.312 10.4375C204.104 10.3958 204.854 10.3333 205.562 10.25C206.312 10.1667 207.042 10.0625 207.75 9.9375C208.292 7.9375 208.812 6.20833 209.312 4.75C209.854 3.25 210.333 2.20833 210.75 1.625C210.875 1.41667 211.146 1.25 211.562 1.125C212.021 0.958333 212.5 0.854167 213 0.8125C213.5 0.729167 213.979 0.729167 214.438 0.8125C214.896 0.854167 215.229 1 215.438 1.25C215.646 1.58333 215.729 2.4375 215.688 3.8125C215.646 5.1875 215.417 6.9375 215 9.0625C216.75 9.0625 218.292 9.16667 219.625 9.375C221 9.54167 222.167 9.75 223.125 10C224.083 10.2083 224.854 10.4375 225.438 10.6875C226.021 10.8958 226.458 11.0417 226.75 11.125C227.042 11.2083 227.188 11.4167 227.188 11.75C227.229 12.0833 227.167 12.4375 227 12.8125C226.875 13.1458 226.646 13.4375 226.312 13.6875C225.979 13.9375 225.604 14.0208 225.188 13.9375C224.771 13.8958 224.292 13.8125 223.75 13.6875C223.25 13.5625 222.625 13.4583 221.875 13.375C221.167 13.2917 220.312 13.2083 219.312 13.125C218.312 13.0417 217.146 13 215.812 13C215.562 13 215.271 13.0208 214.938 13.0625C214.646 13.0625 214.333 13.0625 214 13.0625C213.833 13.7292 213.667 14.3958 213.5 15.0625C213.375 15.6875 213.188 16.3542 212.938 17.0625C212.396 18.7292 211.771 20.5417 211.062 22.5C210.438 24.2083 209.688 26.1667 208.812 28.375C207.938 30.5833 206.958 32.9375 205.875 35.4375C205.625 37.2292 205.646 38.6042 205.938 39.5625C206.271 40.4792 206.667 41.1458 207.125 41.5625C207.667 42.0208 208.333 42.2708 209.125 42.3125C209.75 42.3958 210.5 42.1875 211.375 41.6875C212.292 41.1458 213.229 40.4375 214.188 39.5625C215.146 38.6875 216.104 37.7292 217.062 36.6875C218.062 35.6458 218.979 34.625 219.812 33.625C220.646 32.625 221.375 31.7292 222 30.9375C222.625 30.1042 223.062 29.5208 223.312 29.1875Z" fill="black"/>
</svg>
